<svg width="492" height="529" viewBox="0 0 492 529" fill="none" xmlns="http://www.w3.org/2000/svg">
<path d="M449.463 372.409C435.728 333.245 365.041 397.297 343.2 411.096C321.359 424.895 327.671 365.49 293.27 389.836C264.226 416.298 277.78 477.613 260.999 463.414C259.518 462.161 259.063 454.378 259.063 442.115L263.581 320.13L184.194 351.11L221.328 465.544C224.284 481.124 200.923 459.296 200.033 468.061C198.845 479.678 170.885 478.297 143.236 469.352C96.7651 454.416 75.621 374.307 38.677 364.302C21.0828 359.539 11.0142 370.408 3.82422 383.175C5.44208 386.772 7.19763 390.253 9.09087 393.618C44.6537 456.404 103.116 486.984 189.887 490.25C276.657 493.516 337.714 499.402 411.783 432.227C414.115 430.11 416.361 427.937 418.521 425.708C430.1 413.76 449.463 387.899 449.463 372.409Z" fill="#02ADC5" fill-opacity="0.3"/>
<path d="M415.914 241.917L431.404 240.097L433.753 222.942L419.206 216.991C418.909 211.381 417.929 205.828 416.288 200.455L428.151 189.935L420.238 174.535L404.658 178.136C398.785 170.605 391.402 164.383 382.985 159.871L384.004 143.697L367.494 138.404L358.872 152.242C353.444 151.584 347.957 151.584 342.529 152.242L334.023 138.249L317.474 143.413L318.352 159.781C313.531 162.32 309.029 165.423 304.94 169.023L289.927 162.44L279.317 176.123L289.372 188.967C287.594 192.385 286.109 195.947 284.932 199.616C284.428 201.165 284.003 202.74 283.641 204.302L267.699 207.503L266.847 224.8L282.221 229.525C282.938 235.023 284.316 240.415 286.326 245.583L275.315 257.201L284.545 271.865L299.596 267.024C303.379 271.184 307.658 274.865 312.337 277.983L310.052 293.473L326.02 300.186L335.456 287.794C341.001 289.049 346.682 289.604 352.366 289.446L359.349 303.31L376.272 299.657L376.905 284.166C382.173 281.978 387.15 279.147 391.724 275.737L405.368 283.069L417.127 270.367L408.776 257.317C411.779 252.497 414.177 247.324 415.914 241.917ZM391.62 233.798C389.011 241.939 384.046 249.123 377.354 254.443C370.662 259.763 362.543 262.98 354.023 263.686C345.503 264.392 336.966 262.556 329.489 258.41C322.012 254.265 315.933 247.995 312.019 240.395C308.105 232.794 306.532 224.204 307.5 215.71C308.468 207.216 311.932 199.199 317.455 192.674C322.978 186.148 330.312 181.407 338.53 179.049C346.747 176.691 355.479 176.823 363.622 179.427C369.031 181.157 374.047 183.936 378.382 187.605C382.717 191.275 386.286 195.762 388.886 200.811C391.487 205.86 393.066 211.372 393.535 217.032C394.004 222.692 393.354 228.389 391.62 233.798Z" fill="#F4FFFD"/>
<path d="M87.3806 243.259L93.2023 242.575L94.0801 236.121L88.6198 233.888C88.5044 231.778 88.136 229.689 87.5226 227.666L91.976 223.716L89.0071 217.933L83.1466 219.224C80.9335 216.397 78.1549 214.062 74.9885 212.37L75.3628 206.29L69.1797 204.302L65.9267 209.465C63.8903 209.22 61.8317 209.22 59.7952 209.465L56.5939 204.211L50.385 206.135L50.7077 212.292C48.9002 213.25 47.2106 214.415 45.6734 215.764L40.0324 213.286L36.0437 218.449L39.8259 223.277C39.1544 224.561 38.593 225.9 38.1478 227.279C37.967 227.86 37.8121 228.454 37.6572 229.047L31.6677 230.248L31.3579 236.702L37.0376 238.561C37.3048 240.63 37.825 242.659 38.5866 244.602L34.4559 248.965L37.9154 254.464L43.5822 252.657C45.004 254.22 46.6124 255.603 48.3713 256.775L47.5064 262.609L53.5088 265.191L57.0457 260.531C59.1283 261.003 61.2621 261.212 63.3967 261.151L65.9784 266.314L72.3293 264.933L72.5746 259.124C74.5531 258.305 76.422 257.242 78.1381 255.961L83.3015 258.711L87.7291 253.935L84.5795 249.042C85.7453 247.236 86.686 245.294 87.3806 243.259ZM78.2543 240.213C77.2731 243.274 75.4061 245.976 72.8894 247.976C70.3726 249.976 67.3193 251.185 64.1156 251.449C60.9118 251.714 57.7015 251.022 54.8909 249.462C52.0802 247.902 49.7953 245.543 48.3252 242.684C46.8552 239.826 46.266 236.595 46.6322 233.401C46.9984 230.208 48.3035 227.194 50.3825 224.742C52.4615 222.29 55.2209 220.51 58.3118 219.627C61.4027 218.743 64.6861 218.796 67.7468 219.779C71.8377 221.11 75.2347 224.007 77.1944 227.837C79.154 231.667 79.5165 236.117 78.2027 240.213H78.2543Z" fill="#F8F8F8"/>
<path opacity="0.5" d="M415.914 241.917L431.404 240.097L433.753 222.942L419.206 216.991C418.909 211.381 417.929 205.828 416.288 200.455L428.151 189.935L420.238 174.535L404.658 178.136C398.785 170.605 391.402 164.383 382.985 159.871L384.004 143.697L367.494 138.404L358.872 152.242C353.444 151.584 347.957 151.584 342.529 152.242L334.023 138.249L317.474 143.413L318.352 159.781C313.531 162.32 309.029 165.423 304.94 169.023L289.927 162.44L279.317 176.123L289.372 188.967C287.594 192.385 286.109 195.947 284.932 199.616C284.428 201.165 284.003 202.74 283.641 204.302L267.699 207.503L266.847 224.8L282.221 229.525C282.938 235.023 284.316 240.415 286.326 245.583L275.315 257.201L284.545 271.865L299.596 267.024C303.379 271.184 307.658 274.865 312.337 277.983L310.052 293.473L326.02 300.186L335.456 287.794C341.001 289.049 346.682 289.604 352.366 289.446L359.349 303.31L376.272 299.657L376.905 284.166C382.173 281.978 387.15 279.147 391.724 275.737L405.368 283.069L417.127 270.367L408.776 257.317C411.779 252.497 414.177 247.324 415.914 241.917ZM391.62 233.798C389.011 241.939 384.046 249.123 377.354 254.443C370.662 259.763 362.543 262.98 354.023 263.686C345.503 264.392 336.966 262.556 329.489 258.41C322.012 254.265 315.933 247.995 312.019 240.395C308.105 232.794 306.532 224.204 307.5 215.71C308.468 207.216 311.932 199.199 317.455 192.674C322.978 186.148 330.312 181.407 338.53 179.049C346.747 176.691 355.479 176.823 363.622 179.427C369.031 181.157 374.047 183.936 378.382 187.605C382.717 191.275 386.286 195.762 388.886 200.811C391.487 205.86 393.066 211.372 393.535 217.032C394.004 222.692 393.354 228.389 391.62 233.798Z" fill="#F8F8F8"/>
<path opacity="0.5" d="M87.3806 243.259L93.2023 242.575L94.0801 236.121L88.6198 233.888C88.5044 231.778 88.136 229.689 87.5226 227.666L91.976 223.716L89.0071 217.933L83.1466 219.224C80.9335 216.397 78.1549 214.062 74.9885 212.37L75.3628 206.29L69.1797 204.302L65.9267 209.465C63.8903 209.22 61.8317 209.22 59.7952 209.465L56.5939 204.211L50.385 206.135L50.7077 212.292C48.9002 213.25 47.2106 214.415 45.6734 215.764L40.0324 213.286L36.0437 218.449L39.8259 223.277C39.1544 224.561 38.593 225.9 38.1478 227.279C37.967 227.86 37.8121 228.454 37.6572 229.047L31.6677 230.248L31.3579 236.702L37.0376 238.561C37.3048 240.63 37.825 242.659 38.5866 244.602L34.4559 248.965L37.9154 254.464L43.5822 252.657C45.004 254.22 46.6124 255.603 48.3713 256.775L47.5064 262.609L53.5088 265.191L57.0457 260.531C59.1283 261.003 61.2621 261.212 63.3967 261.151L65.9784 266.314L72.3293 264.933L72.5746 259.124C74.5531 258.305 76.422 257.242 78.1381 255.961L83.3015 258.711L87.7291 253.935L84.5795 249.042C85.7453 247.236 86.686 245.294 87.3806 243.259ZM78.2543 240.213C77.2731 243.274 75.4061 245.976 72.8894 247.976C70.3726 249.976 67.3193 251.185 64.1156 251.449C60.9118 251.714 57.7015 251.022 54.8909 249.462C52.0802 247.902 49.7953 245.543 48.3252 242.684C46.8552 239.826 46.266 236.595 46.6322 233.401C46.9984 230.208 48.3035 227.194 50.3825 224.742C52.4615 222.29 55.2209 220.51 58.3118 219.627C61.4027 218.743 64.6861 218.796 67.7468 219.779C71.8377 221.11 75.2347 224.007 77.1944 227.837C79.154 231.667 79.5165 236.117 78.2027 240.213H78.2543Z" fill="#F8F8F8"/>
<path d="M295.323 122.011L300.319 120.823L300.435 115.13L295.452 113.736C295.16 111.911 294.644 110.129 293.916 108.431L297.389 104.558L294.226 99.8338L289.269 101.589C287.074 99.3489 284.436 97.5904 281.524 96.426L281.24 91.1077L275.651 89.9976L273.263 94.8899C271.464 94.8781 269.671 95.0774 267.919 95.4837L264.614 91.2497L259.451 93.5474L260.367 98.8657C258.887 99.8775 257.53 101.06 256.327 102.39L251.163 100.815L248.22 105.681L251.99 109.554C251.539 110.735 251.189 111.953 250.944 113.194C250.841 113.723 250.763 114.253 250.699 114.782L245.613 116.434L245.987 122.114L251.151 123.069C251.598 124.841 252.256 126.553 253.113 128.168L249.95 132.376L253.526 136.817L258.25 134.661C259.647 135.875 261.185 136.915 262.833 137.759L262.678 142.922L268.151 144.51L270.733 140.095C272.593 140.3 274.471 140.266 276.322 139.992L279.136 144.265L284.519 142.419L284.145 137.346C285.782 136.43 287.299 135.316 288.662 134.028L293.4 135.9L296.756 131.305L293.529 127.355C294.344 125.654 294.947 123.859 295.323 122.011ZM287.075 120.281C286.529 123.033 285.18 125.561 283.198 127.547C281.217 129.533 278.691 130.888 275.941 131.44C273.19 131.992 270.337 131.716 267.743 130.649C265.149 129.581 262.929 127.769 261.363 125.44C259.798 123.112 258.957 120.372 258.948 117.567C258.938 114.761 259.76 112.016 261.309 109.677C262.858 107.338 265.065 105.51 267.652 104.425C270.239 103.339 273.09 103.044 275.844 103.577C277.681 103.933 279.429 104.647 280.988 105.68C282.547 106.713 283.887 108.043 284.93 109.595C285.974 111.148 286.701 112.89 287.069 114.724C287.437 116.558 287.439 118.446 287.075 120.281Z" fill="#2F2F2F"/>
<path d="M142.056 272.944C142.056 272.944 117.319 329.422 121.039 332.844C124.759 336.265 153.351 391.82 158.022 392.01C162.692 392.2 161.063 377.565 161.063 377.565L188.732 351.416L142.056 272.944Z" fill="#2F2F2F"/>
<path d="M251.727 238.731C251.727 238.731 305.463 268.979 304.567 274.03C303.671 279.08 314.206 340.582 310.568 343.542C306.929 346.501 299.462 333.821 299.462 333.821L261.638 329.585L251.727 238.731Z" fill="#2F2F2F"/>
<path d="M264.326 322.742C264.326 322.742 248.034 151.677 234.892 104.241C221.75 56.8046 150.283 -10.0734 124.57 1.27661C98.8556 12.6266 87.9129 102.612 94.3481 149.342C100.783 196.073 173.336 351.66 196.118 366.567C218.899 381.474 262.426 385.9 264.326 322.742Z" fill="white"/>
<path d="M264.326 322.742C264.326 322.742 264.326 321.629 264.028 319.538C246.894 375.799 208.934 366.567 184.089 352.909C187.328 358.063 191.391 362.65 196.118 366.486C218.79 381.447 262.425 385.9 264.326 322.742Z" fill="#2F2F2F"/>
<path d="M124.568 1.27717C100.565 11.894 89.4593 90.8823 93.2878 139.296C102.22 146.771 112.602 152.318 123.781 155.588C167.497 168.35 213.902 144.048 233.696 100.413C217.839 53.221 149.603 -9.77413 124.568 1.27717Z" fill="#2F2F2F"/>
<path d="M178.875 40.6221C197.272 59.3006 212.825 80.5805 225.036 103.78" stroke="white" stroke-linecap="round" stroke-linejoin="round"/>
<path d="M154.954 18.438C154.954 18.438 159.624 22.1308 166.793 28.8105" stroke="white" stroke-linecap="round" stroke-linejoin="round"/>
<path d="M255.719 312.994L256.778 321.005" stroke="#2F2F2F" stroke-linecap="round" stroke-linejoin="round"/>
<path d="M252.487 288.53L254.877 306.641" stroke="#2F2F2F" stroke-linecap="round" stroke-linejoin="round"/>
<path d="M233.888 148.04L250.37 272.536" stroke="#2F2F2F" stroke-linecap="round" stroke-linejoin="round"/>
<path d="M230.331 121.294L231.824 132.481" stroke="#2F2F2F" stroke-linecap="round" stroke-linejoin="round"/>
<path d="M117.482 198.49L148.111 267.676" stroke="#2F2F2F" stroke-linecap="round" stroke-linejoin="round"/>
<path d="M151.288 276.12L157.56 290.186" stroke="#2F2F2F" stroke-linecap="round" stroke-linejoin="round"/>
<path d="M225.694 220.645C231.997 199.036 220.557 176.692 200.143 170.738C179.729 164.784 158.071 177.475 151.768 199.084C145.466 220.693 156.905 243.037 177.319 248.991C197.733 254.945 219.392 242.254 225.694 220.645Z" fill="#2F2F2F"/>
<path d="M213.577 220.674C211.967 225.208 209.064 229.172 205.227 232.075C201.389 234.977 196.786 236.692 191.984 237.008C187.183 237.324 182.394 236.226 178.21 233.85C174.026 231.475 170.629 227.926 168.439 223.641C166.25 219.356 165.363 214.524 165.889 209.742C166.415 204.959 168.33 200.435 171.398 196.728C174.467 193.022 178.554 190.296 183.154 188.886C187.755 187.476 192.667 187.445 197.285 188.797C203.666 190.874 208.963 195.395 212.016 201.37C215.07 207.345 215.631 214.286 213.577 220.674Z" fill="white"/>
<path d="M215.722 315.275L245.102 390.869C245.236 391.296 245.459 391.69 245.755 392.026C246.051 392.361 246.414 392.631 246.821 392.818C247.228 393.005 247.669 393.104 248.117 393.11C248.564 393.116 249.008 393.028 249.419 392.851C250.276 392.458 250.954 391.756 251.316 390.885C251.679 390.015 251.699 389.039 251.374 388.154L226.285 310.659C226.02 309.934 225.604 309.273 225.064 308.721C224.524 308.169 223.872 307.739 223.153 307.459C222.433 307.179 221.663 307.056 220.892 307.097C220.121 307.138 219.367 307.344 218.682 307.699C217.381 308.417 216.372 309.567 215.831 310.952C215.29 312.336 215.252 313.865 215.722 315.275Z" fill="#2F2F2F"/>
<path d="M358.238 123.198L360.639 127.665" stroke="#2F2F2F" stroke-linecap="round" stroke-linejoin="round"/>
<path d="M366.861 123.392L367.3 125.857" stroke="#2F2F2F" stroke-linecap="round" stroke-linejoin="round"/>
<path d="M375.394 121.649L374.968 125.625" stroke="#2F2F2F" stroke-linecap="round" stroke-linejoin="round"/>
<path d="M399.236 141.205L394.331 142.457" stroke="#2F2F2F" stroke-linecap="round" stroke-linejoin="round"/>
<path d="M393.259 134.984L391.155 136.339" stroke="#2F2F2F" stroke-linecap="round" stroke-linejoin="round"/>
<path d="M388.78 127.522L386.134 130.53" stroke="#2F2F2F" stroke-linecap="round" stroke-linejoin="round"/>
<path d="M380.493 130.104H380.376H380.273C368.552 125.212 355.876 130.246 351.074 141.206C349.629 144.469 349.009 148.037 349.267 151.597C349.267 153.404 349.164 157.819 348.583 163.318C348.223 166.893 347.536 170.427 346.53 173.877L346.427 174.071C346.332 174.27 346.279 174.487 346.269 174.707C346.26 174.928 346.294 175.148 346.371 175.355C346.448 175.562 346.566 175.752 346.718 175.912C346.869 176.073 347.051 176.202 347.253 176.291H347.357L356.392 180.241H356.496L358.923 181.299H359.039L368.075 185.249H368.178C368.379 185.338 368.596 185.385 368.816 185.388C369.036 185.391 369.254 185.349 369.457 185.266C369.661 185.183 369.846 185.06 370.001 184.904C370.156 184.748 370.278 184.563 370.359 184.359C370.359 184.281 370.424 184.217 370.45 184.152C372.305 181.075 374.44 178.176 376.827 175.491C380.493 171.347 383.668 168.288 384.985 167.061C387.907 164.733 390.186 161.698 391.607 158.242C393.028 154.787 393.543 151.026 393.103 147.316C392.664 143.606 391.284 140.069 389.095 137.041C386.907 134.014 383.981 131.595 380.596 130.014L380.493 130.104Z" fill="#F8F8F8"/>
<path d="M368.547 185.4L346.895 175.891L344.689 180.914L366.341 190.423L368.547 185.4Z" fill="#2F2F2F"/>
<path d="M363.789 196.222L365.816 191.626L344.155 182.113L342.193 186.579L363.789 196.222Z" fill="#2F2F2F"/>
<path d="M366.338 190.426L344.686 180.917L344.162 182.11L365.814 191.619L366.338 190.426Z" fill="white"/>
<path d="M342.193 186.579L344.969 193.007L357.116 198.3L363.789 196.221L342.193 186.579Z" fill="#2F2F2F"/>
<path d="M371.147 175.942C373.457 172.376 376.31 169.192 379.602 166.506C387.876 159.961 393.646 153.597 388.896 141.825" stroke="#2F2F2F" stroke-linecap="round" stroke-linejoin="round"/>
<path d="M367.288 182.964C367.288 182.964 367.778 181.764 368.772 179.918" stroke="#2F2F2F" stroke-linecap="round" stroke-linejoin="round"/>
<path d="M354.586 178.692C354.586 178.692 357.077 162.801 355.36 158.374C353.643 153.946 352.288 167.074 358.678 165.254C365.067 163.434 361.763 155.676 360.846 159.187C359.93 162.698 362.305 167.268 366.126 165.073C369.947 162.879 370.114 159.561 367.868 161.02C365.622 162.479 368.32 168.894 371.999 167.371C375.678 165.848 374.878 163.744 372.154 164.931C369.43 166.119 363.402 177.917 361.595 182.293" stroke="#2F2F2F" stroke-linecap="round" stroke-linejoin="round"/>
<path d="M450.612 285.522C449.355 288.445 447.515 291.081 445.203 293.267C441.137 297.282 439.446 306.356 450.495 311.339C461.545 316.322 457.13 335.297 443.886 332.999C430.642 330.702 423.129 309.764 410.66 315.005C398.19 320.246 401.624 339.699 392.369 335.878C383.113 332.057 379.241 322.97 371.947 326.494C364.654 330.018 361.388 347.147 389.077 357.112C416.766 367.078 410.544 325.59 419.257 327.049C427.97 328.507 428.628 341.08 442.492 344.798C456.356 348.515 470.155 328.339 468.219 316.98C466.282 305.621 451.076 305.621 448.572 299.967C446.068 294.313 454.729 287.807 454.729 287.807C454.729 287.807 454.252 283.767 450.612 285.522Z" fill="#02ADC5" fill-opacity="0.3"/>
<path d="M452.16 275.854L448.817 284.27C448.529 284.987 448.486 285.778 448.697 286.521C448.907 287.264 449.358 287.916 449.979 288.375C450.7 288.906 451.597 289.141 452.485 289.03C453.374 288.92 454.186 288.473 454.755 287.781L461.429 279.675L452.16 275.854Z" fill="#2F2F2F" stroke="#2F2F2F" stroke-linecap="round" stroke-linejoin="round"/>
<path d="M470.568 225.149L491.957 240.213C491.957 240.213 478.868 259.305 474.092 268.496C469.316 277.687 462.694 284.102 457.207 283.16C451.721 282.217 448.443 274.563 450.069 267.992C451.696 261.422 463.597 246.642 466.037 239.594C468.477 232.546 470.568 225.149 470.568 225.149Z" fill="#F8F8F8"/>
<path d="M470.568 225.149C470.568 225.149 468.49 232.455 466.037 239.516C464.892 242.346 463.465 245.053 461.777 247.597C466.885 252.578 472.491 257.02 478.507 260.854C484.251 251.482 491.983 240.2 491.983 240.2L470.568 225.149Z" fill="#2F2F2F"/>
<path d="M466.889 297.372C466.526 297.947 466.001 298.402 465.38 298.679C464.759 298.955 464.07 299.041 463.4 298.926C462.73 298.81 462.109 298.498 461.616 298.029C461.124 297.561 460.782 296.956 460.633 296.293C460.484 295.629 460.536 294.936 460.781 294.302C461.027 293.668 461.455 293.121 462.012 292.731C462.569 292.34 463.229 292.124 463.908 292.109C464.588 292.094 465.257 292.282 465.83 292.647C466.212 292.887 466.542 293.199 466.802 293.567C467.062 293.934 467.246 294.35 467.344 294.789C467.443 295.228 467.453 295.683 467.375 296.126C467.297 296.569 467.132 296.993 466.889 297.372Z" fill="#02ADC5" fill-opacity="0.3"/>
<path d="M437.303 316.141C436.985 316.64 436.526 317.033 435.985 317.272C435.443 317.51 434.844 317.583 434.261 317.481C433.678 317.379 433.139 317.107 432.71 316.698C432.282 316.29 431.985 315.764 431.855 315.187C431.726 314.609 431.77 314.007 431.983 313.455C432.196 312.902 432.567 312.426 433.05 312.085C433.534 311.743 434.107 311.553 434.699 311.537C435.29 311.522 435.873 311.682 436.373 311.997C437.045 312.424 437.52 313.1 437.694 313.877C437.869 314.654 437.728 315.468 437.303 316.141Z" fill="#02ADC5" fill-opacity="0.3"/>
<path d="M434.773 364.974C434.667 365.143 434.53 365.29 434.368 365.407C434.206 365.523 434.023 365.606 433.829 365.652C433.634 365.698 433.433 365.704 433.236 365.672C433.039 365.64 432.851 365.569 432.681 365.464C432.512 365.359 432.365 365.222 432.248 365.06C432.132 364.898 432.049 364.714 432.003 364.52C431.957 364.326 431.951 364.125 431.983 363.928C432.015 363.731 432.086 363.543 432.191 363.373C432.403 363.031 432.743 362.787 433.135 362.695C433.527 362.603 433.94 362.67 434.282 362.883C434.624 363.095 434.868 363.434 434.96 363.826C435.052 364.219 434.985 364.631 434.773 364.974Z" fill="#02ADC5" fill-opacity="0.3"/>
<path d="M381.409 346.566C384.895 348.764 388.775 350.264 392.833 350.981C404.451 352.93 405.897 346.385 408.323 337.13" stroke="#2F2F2F" stroke-linecap="round" stroke-linejoin="round"/>
<path d="M373.858 340.318C374.659 341.236 375.522 342.099 376.44 342.9" stroke="#2F2F2F" stroke-linecap="round" stroke-linejoin="round"/>
<path d="M440.672 340.654C440.672 340.654 452.987 346.269 460.603 331.618" stroke="#2F2F2F" stroke-linecap="round" stroke-linejoin="round"/>
<path d="M454.42 279.004C453.848 278.661 453.353 278.204 452.964 277.663C452.575 277.121 452.302 276.505 452.161 275.854" stroke="#2F2F2F" stroke-linecap="round" stroke-linejoin="round"/>
<path d="M473.834 263.203C473.834 263.203 466.231 277.829 461.403 279.675C460.312 280.106 459.14 280.291 457.969 280.217" stroke="#2F2F2F" stroke-linecap="round" stroke-linejoin="round"/>
<path d="M211.581 147.564L175.843 151.579L179 179.685L214.738 175.67L211.581 147.564Z" fill="white"/>
<path opacity="0.5" d="M211.581 147.564L175.843 151.579L179 179.685L214.738 175.67L211.581 147.564Z" fill="white"/>
<path d="M210.031 148.91L177.563 152.558L180.404 177.841L212.871 174.194L210.031 148.91Z" fill="white"/>
<path d="M211.302 157.638C209.533 155.753 208.049 155.353 206.332 157.38C203.75 160.465 202.356 167.358 200.523 167.074C198.69 166.79 198.368 164.028 196.522 162.259C194.676 160.491 192.352 164.699 187.809 169.656C185.662 172.004 183.015 173.839 180.063 175.026L180.399 178.059L213.199 174.367L211.302 157.638Z" fill="#2F2F2F"/>
<path d="M189.861 157.651C189.955 158.47 189.804 159.3 189.427 160.034C189.05 160.767 188.464 161.373 187.742 161.773C187.021 162.174 186.197 162.351 185.375 162.283C184.552 162.215 183.769 161.905 183.123 161.391C182.477 160.877 181.999 160.183 181.747 159.398C181.496 158.612 181.484 157.769 181.712 156.976C181.94 156.183 182.398 155.475 183.028 154.943C183.658 154.41 184.433 154.077 185.252 153.985C186.349 153.861 187.451 154.178 188.314 154.865C189.178 155.552 189.734 156.554 189.861 157.651Z" fill="#2F2F2F"/>
<path d="M116.714 292.643L56.8975 272.768L41.2717 319.795L101.088 339.67L116.714 292.643Z" fill="white"/>
<path opacity="0.5" d="M116.714 292.643L56.8975 272.768L41.2717 319.795L101.088 339.67L116.714 292.643Z" fill="white"/>
<path d="M111.952 294.873L57.5527 276.549L43.2853 318.906L97.6841 337.23L111.952 294.873Z" fill="#2F2F2F"/>
<path d="M108.731 308.422C107.311 304.123 105.233 302.394 100.986 304.356C94.5316 307.35 87.3158 317.264 84.605 315.509C81.8943 313.753 83.4175 309.054 81.7781 304.911C80.1387 300.767 73.3618 305.737 62.4929 310.281C57.3254 312.433 51.741 313.399 46.1507 313.108L44.4727 318.168L99.3852 336.42L108.731 308.422Z" fill="white"/>
<path d="M74.7044 292.738C74.2482 294.109 73.3959 295.313 72.2552 296.2C71.1145 297.086 69.7366 297.615 68.2957 297.718C66.8548 297.822 65.4156 297.496 64.1598 296.781C62.9041 296.067 61.8883 294.997 61.2408 293.705C60.5933 292.414 60.3432 290.96 60.522 289.526C60.7009 288.093 61.3007 286.744 62.2456 285.652C63.1906 284.559 64.4383 283.771 65.831 283.387C67.2237 283.003 68.6989 283.041 70.0702 283.495C70.9817 283.797 71.8248 284.276 72.5511 284.904C73.2774 285.532 73.8728 286.298 74.3032 287.156C74.7336 288.014 74.9906 288.949 75.0594 289.907C75.1282 290.865 75.0076 291.827 74.7044 292.738Z" fill="white"/>
<path d="M175.249 212.473C236.461 225.949 355.438 262.067 385.811 264.107C460.074 269.27 464.553 138.585 367.494 109.373C291.851 86.6026 216.311 144.846 155.718 166.842" stroke="#2F2F2F" stroke-width="0.5" stroke-linecap="round" stroke-linejoin="round" stroke-dasharray="3 3"/>
<path d="M0.894043 362.792C29.1377 341.467 93.5638 307.583 215.652 310.603C351.72 313.959 401.327 335.387 461.623 336.214" stroke="#2F2F2F" stroke-width="0.5" stroke-linecap="round" stroke-linejoin="round" stroke-dasharray="5 3"/>
</svg>
